<svg xmlns="http://www.w3.org/2000/svg" viewBox="0 0 64 64" role="img" aria-labelledby="title desc">
  <title>OctaneDrop LAN</title>
  <desc>Rounded square orange logo with downward file share arrow</desc>
  <defs>
    <linearGradient id="g" x1="0" x2="1" y1="0" y2="1">
      <stop offset="0%" stop-color="#ff9d39" />
      <stop offset="100%" stop-color="#ff7300" />
    </linearGradient>
    <filter id="shadow" x="-20%" y="-20%" width="140%" height="140%">
      <feDropShadow dx="0" dy="3" stdDeviation="3" flood-color="#000000" flood-opacity="0.25"/>
    </filter>
  </defs>
  <rect x="4" y="4" width="56" height="56" rx="18" fill="#0f1218" />
  <rect x="7" y="7" width="50" height="50" rx="16" fill="url(#g)" filter="url(#shadow)" />
  <path d="M32 18c1.38 0 2.5 1.12 2.5 2.5v11.46l3.77-3.77a2.5 2.5 0 1 1 3.53 3.54l-8.04 8.03a2.5 2.5 0 0 1-3.53 0l-8.04-8.03a2.5 2.5 0 0 1 3.53-3.54l3.78 3.77V20.5c0-1.38 1.12-2.5 2.5-2.5Z" fill="#ffffff" />
  <rect x="18" y="42" width="28" height="4.5" rx="2.25" fill="#ffffff" fill-opacity="0.95" />
</svg>